<svg xmlns="http://www.w3.org/2000/svg" viewBox="0 0 32 32"><path d="M4.7 0h22.7c2.6 0 4.7 2.1 4.7 4.7v22.7c0 2.6-2.1 4.7-4.7 4.7H4.7C2.1 32.1 0 30 0 27.4V4.7C0 2.1 2.1 0 4.7 0" style="fill:#6067f9"/><path d="M23.4 6.4c-1.4 2-3.2 3.3-5.2 4.2-.7-.2-1.5-.3-2.2-.3s-1.5 0-2.2.3c-2.1-.9-3.8-2.3-5.2-4.2-.4 1.1-2.1 4.7 0 9.9 0 0-.6 2.7.5 5 0 0 1.7-.8 3 .3 1.4 1.1.9 2.2 1.9 3.1.8.9 2.1.9 2.1.9s1.3 0 2.1-.9c1-.9.5-2 1.9-3.1 1.3-1.1 3-.3 3-.3 1.1-2.3.5-5 .5-5 2-5.2.3-8.8-.1-9.9ZM9.5 15.6c-1.1-2.2-1.4-5.2-.7-7.6.9 2.3 2.1 3.3 3.5 4.3-.6 1.3-1.8 2.5-2.9 3.2Zm3.1 3.8c-.8-.4-1-1.1-1-1.1 1.1-.7 2.8-.2 2.9 1.5-.9-.5-1.2-.1-1.9-.4m3.4 6.1c-.6 0-1.1-.4-1.1-1s.5-1 1.1-1 1.1.4 1.1 1-.5 1-1.1 1m3.4-6.1c-.7.3-1-.1-1.9.4 0-1.7 1.7-2.3 2.9-1.5 0 0-.2.7-1 1.1m3.1-3.8c-1.1-.8-2.2-2-2.9-3.2 1.4-1.1 2.7-2.1 3.5-4.3.7 2.4.4 5.4-.7 7.6Z" style="fill:#f7f7f7"/></svg>